# xmcd
#
# Track frame offsets: 
#        150
#        15760
#        32060
#        49785
#        66047
#        84530
#        105510
#        119482
#        140310
#        157100
#
# Disc length: 2271 seconds
#
# Revision: 0
# Processed by: cddbd v1.5.1PL0 Copyright (c) Steve Scherf et al.
# Submitted via: ExactAudioCopy v0.90b4
#
DISCID=7808dd0a
DTITLE=Dan Seals - Classics Collection Vol. 1
DYEAR=1900
DGENRE=Country
TTITLE0=My Baby's Got Good Timing
TTITLE1=My Old Yellow Car
TTITLE2=Meet Me In Montana (Duet With Marie Osmond)
TTITLE3=You Plant Your Fields
TTITLE4=Twenty-Four Hour Love
TTITLE5=They Rage You
TTITLE6=God Must Be A Cowboy
TTITLE7=On The Front Line
TTITLE8=Fool Me Once, Fool Me Twice
TTITLE9=Lullaby (Duet Emmylou Harris)
EXTD=
EXTT0=
EXTT1=
EXTT2=
EXTT3=
EXTT4=
EXTT5=
EXTT6=
EXTT7=
EXTT8=
EXTT9=
PLAYORDER=
